<?xml version="1.0" encoding="UTF-8"?>
<svg xmlns="http://www.w3.org/2000/svg" onmouseup="{ if(window.parent.document.onmouseup) window.parent.document.onmouseup(arguments[0]);}" viewBox="0 0 36 36" height="128" width="128" xmlns:xlink="http://www.w3.org/1999/xlink">
  <defs>
    <circle id="navigation-b" cx="18" cy="18" r="16"/>
    <filter id="navigation-a" width="118.8%" height="118.8%" x="-9.4%" y="-9.4%" filterUnits="objectBoundingBox">
      <feOffset in="SourceAlpha" result="shadowOffsetOuter1"/>
      <feGaussianBlur in="shadowOffsetOuter1" result="shadowBlurOuter1" stdDeviation="1"/>
      <feComposite in="shadowBlurOuter1" in2="SourceAlpha" operator="out" result="shadowBlurOuter1"/>
      <feColorMatrix in="shadowBlurOuter1" values="0 0 0 0 0   0 0 0 0 0   0 0 0 0 0  0 0 0 0.5 0"/>
    </filter>
  </defs>
  <g fill="none" fill-rule="evenodd">
    <rect width="128" height="128" fill="#03FF00" opacity="0"/>
    <use xmlns:xlink="http://www.w3.org/1999/xlink" fill="#000" filter="url(#navigation-a)" xlink:href="#navigation-b"/>
    <circle cx="18" cy="18" r="15" fill="#000" stroke="#FFF" stroke-linejoin="square" stroke-width="2"/>
    <path fill="#FFF" fill-rule="nonzero" d="M26,11.5 L26,9.5 C26,9.22385763 25.7730239,9 25.4930346,9 L21.5387046,9 C17.2828679,9 13.9980046,12.4026359 13.9980046,16.6 L13.9980046,21 L11.5078874,21 C11.3025574,20.9996377 11.1172822,21.1214629 11.0386561,21.3085367 C10.96003,21.4956106 11.0035817,21.7109858 11.1489559,21.854 L15.3537268,26 L19.5574838,21.854 C19.7027268,21.7111143 19.7463424,21.4959821 19.6679766,21.3089993 C19.5896108,21.1220166 19.4047117,21.000043 19.1995663,21 L16.9974364,21 L16.9974364,16 C16.9974364,13.790861 18.6904321,12 20.9303461,12 L25.4930346,12 C25.7730239,12 26,11.7761424 26,11.5 Z" transform="matrix(0 1 1 0 1 -1)"/>
  </g>
</svg>